<svg xmlns="http://www.w3.org/2000/svg" width="24" height="27" viewBox="0 0 24 27"><g fill="#002F34" fill-rule="evenodd"><path d="M20.958 7.244l-.108-1.918-2.59 3.088-.546.65-.684.815-1.45.172-.082-1.458.684-.815 3.136-3.737-1.906.226v.001l-1.843.218-1.083-.909.967-1.152 1.842-.219 4.382-.52 1.083.909L23.01 7l.104 1.853-.967 1.152-1.083-.909zM3.042 19.603H3.04l.108 1.918 2.591-3.088.545-.65.684-.815 1.45-.172.082 1.458-.684.815-3.136 3.737 1.907-.226v-.001l1.842-.218 1.084.909-.967 1.152-1.843.219-4.381.52-1.084-.909-.248-4.405-.105-1.853.967-1.152 1.083.909zM17.664 22.784h.001l1.92-.04-2.996-2.698-.63-.568-.79-.712-.122-1.455 1.46-.03.79.711 3.626 3.265-.16-1.913v-.001l-.154-1.849.946-1.05 1.118 1.006.154 1.85.367 4.396-.946 1.05-4.411.095-1.855.04-1.118-1.006.946-1.05zM6.335 4.063l-1.92.04 2.996 2.698.63.567.79.712.122 1.456-1.46.03-.79-.711L3.077 5.59l.16 1.913v.001l.154 1.849-.946 1.05-1.118-1.006-.154-1.85-.367-4.396.946-1.051 4.411-.095 1.855-.04 1.118 1.007-.946 1.05z"/></g></svg>